# xmcd
#
# Track frame offsets:
#	150
#	59672
#	111545
#	136655
#	189982
#	221960
#	262250
#	299875
#
# Disc length: 4368 seconds
#
# Revision: 1
# Processed by: cddbd v1.5.1PL0 Copyright (c) Steve Scherf et al.
# Submitted via: CDex 1.50Beta5
#
DISCID=91110e08
DTITLE=カラヤンほか - CLASSIC MUSIC
DYEAR=1900
DGENRE=
TTITLE0=第9番 新世界より 第2楽章
TTITLE1=第8番 未完成 第1楽章
TTITLE2=アイネ・クライネ・ナハトムジーク 第2楽章
TTITLE3=ウィリアムテル 序曲
TTITLE4=惑星 火星-戦争の神
TTITLE5=美しく青きドナウ
TTITLE6=魔弾の射手 序曲
TTITLE7=ドン・ジョヴァンニ 序曲
EXTD=
EXTT0=
EXTT1=
EXTT2=
EXTT3=
EXTT4=
EXTT5=
EXTT6=
EXTT7=
PLAYORDER=
